<?xml version="1.0"?>
<svg width="1566" height="804" xmlns="http://www.w3.org/2000/svg" xmlns:svg="http://www.w3.org/2000/svg" preserveAspectRatio="xMidYMid meet" version="1.0">
 <g class="layer" display="inline">
  <title>Layer 1</title>
  <g id="svg_17">
   <path d="m483.1,404.8c-0.6,1.1 -1.1,3.4 -1.1,5.1c0,4.9 2.8,6.1 15,6.1c11.6,0 17.1,1.1 20.1,4.1c1.6,1.6 1.9,3.3 1.9,11.4l0,9.5l-40.3,0c-30,0 -40.6,0.3 -41.5,1.2c-1.9,1.9 -1.5,8.2 0.6,10.1c1.7,1.5 6,1.7 41.5,1.7l39.7,0l0,8.1c0,9.4 -0.9,11.5 -5.8,13.7c-3.4,1.6 -15.8,1.7 -147.6,2c-103.1,0.2 -144.3,0.6 -145.3,1.3c-0.7,0.6 -1.3,3.1 -1.3,5.5c0,3.3 0.5,4.6 2,5.4c1.4,0.7 45.7,1 145.7,0.7c155.5,-0.3 147.2,0 157.8,-5.4c9.8,-5 10.5,-7.6 10.5,-38.5c0,-28.6 -0.6,-31.1 -7.9,-36.2c-7.7,-5.4 -13.5,-6.9 -28.7,-7.4c-13.6,-0.4 -14.2,-0.4 -15.3,1.6z" fill="#f80000" id="svg_4" transform="matrix(1 0 0 1 0 0)"/>
   <path d="m553.2,404.2c-0.9,0.9 -1.2,11.7 -1.2,42.4c0,46.4 -0.3,44.4 7.4,44.4c7.9,0 8.1,-0.5 8.1,-19.9l0,-17.1l39.3,0l39.2,0l0,16.9c0,19.4 0.3,20.1 7.4,20.1c8.1,0 7.6,2.6 7.7,-43.8c0.1,-31.1 -0.2,-41.6 -1.1,-42.7c-1.6,-1.9 -11.3,-2 -12.9,-0.2c-0.6,0.8 -1.2,8 -1.3,18.8l-0.3,17.4l-38.7,0.3l-38.6,0.2l-0.4,-18c-0.2,-14.7 -0.6,-18.3 -1.8,-19c-2.2,-1.4 -11.4,-1.2 -12.8,0.2z" fill="#f80000" id="svg_5"/>
   <path d="m702.3,404.5c-8,2.2 -14.9,6.1 -18,10.2l-2.8,3.6l-0.3,26.1c-0.2,14.4 0,27.6 0.3,29.4c0.9,4.8 6.7,10.8 12.8,13c9.1,3.4 18.5,4.2 50.6,4.2c29.8,0 31.2,-0.1 33.1,-2c2.4,-2.4 2.6,-7.2 0.4,-9.4c-1.3,-1.4 -5.8,-1.6 -33.9,-1.6c-33.7,0 -40.5,-0.6 -45,-4.1c-2.3,-1.9 -2.5,-2.6 -2.5,-11l0,-8.9l39.5,0c38.2,0 39.6,-0.1 41.5,-2c2.3,-2.3 2.6,-6.8 0.8,-9.3c-1.2,-1.5 -5.1,-1.7 -41.8,-1.9l-40.5,-0.3l-0.3,-7.6c-0.5,-14.6 1.5,-16 23.9,-16.8c11.1,-0.4 16.1,-1 17.3,-2c1.9,-1.6 2.2,-8.1 0.4,-9.9c-1.7,-1.7 -28.8,-1.5 -35.5,0.3z" fill="#f80000" id="svg_6"/>
   <path d="m798.3,404.1c-1,1 -1.3,11 -1.3,43.1c0,40.2 0.1,41.8 1.9,42.8c2.7,1.4 9.4,1.3 11.4,-0.3c1.4,-1 1.7,-3.5 1.9,-15.7l0.3,-14.5l36,-0.5c34.8,-0.5 36.2,-0.6 41.8,-2.9c6.9,-2.7 12.5,-7.3 14.3,-11.8c2,-4.6 1.9,-24.5 -0.1,-28.3c-2,-3.9 -7,-7.6 -14.1,-10.2c-5.7,-2.1 -7.4,-2.2 -48.4,-2.6c-33.1,-0.2 -42.8,0 -43.7,0.9zm84.7,12.9c6.9,1.9 7.5,2.9 7.5,12.3c0,16.7 0,16.7 -44.5,16.7l-34,0l0,-15l0,-15l33.8,0c19,0 35.2,0.4 37.2,1z" fill="#f80000" id="svg_7"/>
   <path d="m945,404.6c-7.2,1.9 -13.3,5.6 -16.7,10.1l-2.8,3.6l-0.3,35.1c-0.3,39.5 -0.7,37.6 7.3,37.6c8.3,0 8,1.4 8.3,-35.8c0.3,-30.9 0.4,-33.1 2.2,-34.7c4.3,-3.9 8.5,-4.4 35.8,-4.5c24.8,0 26.3,-0.1 28.2,-2c2.2,-2.2 2.6,-6 1,-9.1c-1,-1.8 -2.4,-1.9 -29.3,-1.8c-21.5,0 -29.5,0.4 -33.7,1.5z" fill="#f80000" id="svg_8"/>
   <path d="m1043.5,404.4c-12.2,2.9 -19.4,8 -21.4,15.3c-0.6,2.2 -1.1,14.2 -1.1,27.7c0,22.4 0.1,24.3 2.1,28.4c2.8,5.6 8.4,9.7 17.3,12.5c6.6,2 9,2.2 33.6,2.2c28.3,0 33.1,-0.6 42.2,-5.1c2.6,-1.3 5.8,-3.9 7.2,-5.7c4.1,-5.3 4.8,-11.6 4.4,-36.5c-0.4,-25.3 -0.9,-27.4 -7.4,-33.2c-6.4,-5.6 -10.9,-6.3 -42.4,-6.6c-21.6,-0.3 -30,0 -34.5,1zm57.9,12.7c2.3,0.6 5.6,2.1 7.2,3.4l2.9,2.3l0.3,23l0.3,22.9l-2.5,3c-4.2,5 -9.1,5.8 -36.1,5.8c-20.9,0 -24.6,-0.2 -28.8,-1.8c-7.7,-3 -7.7,-3 -7.7,-28.8c0,-26 0.2,-26.7 8.8,-29.3c5.8,-1.8 48.9,-2.2 55.6,-0.5z" fill="#f80000" id="svg_9"/>
   <path d="m806.7,521.5c-1.2,0.6 -10.5,8.1 -20.6,16.6c-10.2,8.5 -27.7,23.1 -39,32.6l-20.6,17.2l-0.5,-31.8c-0.4,-24.9 -0.8,-32.2 -1.9,-33.4c-1.6,-2 -11,-2.4 -12.9,-0.5c-0.9,0.9 -1.2,11.5 -1.2,41.4c0,22.1 0.3,41 0.6,41.9c1,2.5 6.2,4.4 9.5,3.5c3.8,-1.1 8.1,-4.3 25.4,-19c8.2,-6.9 24.3,-20.5 35.9,-30.3l21.1,-17.9l0.5,32.6c0.6,36.6 0.1,34.6 8.2,34.6c8.1,0 7.9,1.3 7.6,-44.3c-0.3,-36.5 -0.4,-39.6 -2.1,-41.5c-2.2,-2.4 -7,-3.3 -10,-1.7z" fill="#34398c" id="svg_10"/>
   <path d="m241,522.1c-6.6,1.3 -14.9,5.9 -18.4,10.2l-3.1,3.9l-0.3,27.6l-0.3,27.7l3,4.7c3.4,5.4 9.1,9 17.6,11.2c4.8,1.3 12.5,1.6 41.2,1.6c33.8,0 35.3,-0.1 36.3,-1.9c1.5,-2.9 1.2,-7.7 -0.6,-9.5c-1.3,-1.4 -6,-1.6 -35.7,-1.6c-35.7,-0.1 -39.2,-0.5 -43.8,-4.6c-1.8,-1.6 -1.9,-3 -1.7,-27.3l0.3,-25.5l3.5,-2c3.3,-2 5.5,-2.1 40,-2.6c20.1,-0.3 37.1,-0.9 37.8,-1.3c0.6,-0.5 1.2,-2.8 1.2,-5.2c0,-3.4 -0.5,-4.7 -1.9,-5.5c-2.4,-1.2 -68.5,-1.2 -75.1,0.1z" fill="#34398c" id="svg_11"/>
   <path d="m361,522.1c-6.3,1.1 -15.4,5 -18.9,8.2c-5.5,5.1 -6.1,8.1 -6.1,34.2c0,14.5 0.4,25.6 1.1,28c1.6,5.8 7.5,10.9 15.6,13.7c6.5,2.1 8.7,2.2 43.1,2.6c27.1,0.2 36.7,0 37.8,-0.9c2.2,-1.8 1.9,-9.6 -0.5,-10.9c-1.3,-0.6 -14.2,-1 -35.3,-1c-35.2,0 -39.3,-0.4 -43.4,-4.5c-2.2,-2.2 -2.4,-3.3 -2.4,-11l0,-8.5l40.3,0c30,0 40.6,-0.3 41.5,-1.2c1.6,-1.6 1.6,-9 0,-10.6c-0.9,-0.9 -11.5,-1.2 -41.5,-1.2l-40.3,0l0,-9c0,-8.2 0.2,-9.3 2.3,-11.4c3.3,-3.3 10.6,-4.6 25.2,-4.6c11.7,0 12.5,-0.1 13.9,-2.2c0.9,-1.2 1.6,-3.2 1.6,-4.3c0,-1.1 -0.7,-3.1 -1.6,-4.3c-1.4,-2.1 -2.2,-2.2 -14.2,-2.1c-7,0.1 -15.2,0.5 -18.2,1z" fill="#34398c" id="svg_12"/>
   <path d="m453.7,522.8c-1.5,1.7 -1.7,5.4 -1.7,42.5c0,46 -0.4,43.7 8,43.7c7.6,0 8,-0.8 8,-17.1l0,-13.9l28.8,0c15.8,0 32.6,-0.5 37.2,-1.1c14.8,-1.8 24.5,-7.8 26.9,-16.6c1.6,-5.5 1.4,-20.7 -0.3,-24.7c-1.9,-4.6 -7.7,-9 -15.4,-11.7c-6.5,-2.3 -7.8,-2.3 -48.2,-2.7c-39.8,-0.3 -41.6,-0.3 -43.3,1.6zm88.3,13.8l3.5,2l0.3,8.4c0.3,10.1 -0.7,13.1 -5.6,15.6c-3.4,1.7 -6.8,1.9 -37.9,2.2l-34.3,0.4l0,-15.7l0,-15.6l35.3,0.3c33.4,0.3 35.4,0.4 38.7,2.4z" fill="#34398c" id="svg_13"/>
   <path d="m583.6,522.6c-1.4,1.3 -1.6,6.6 -1.6,42.9c0,39.9 0.1,41.5 1.9,42.5c3.3,1.7 77,1.3 85.5,-0.5c8.6,-1.8 14.9,-5.5 18.4,-10.7c2.4,-3.8 2.7,-5 2.7,-13.4c0,-8.8 -0.2,-9.5 -3.2,-13.7l-3.1,-4.5l2.4,-3.3c3.1,-4.2 4.4,-8.9 4.4,-16.2c0,-9.5 -4.1,-16 -13.1,-20.7c-6.4,-3.3 -15.3,-4 -54.6,-4c-33.4,0 -38.4,0.2 -39.7,1.6zm86.1,13.7c4.4,2.4 5.4,4.7 5.1,11.9c-0.3,6 -0.4,6.1 -4.3,8.2c-3.8,2 -5.7,2.1 -38.2,2.4l-34.3,0.3l0,-12.6l0,-12.6l34.3,0.3c30.4,0.3 34.6,0.5 37.4,2.1zm-3.2,36.8c6.6,1.7 8.5,4 8.5,10.2c0,11.9 -2.8,12.7 -44.7,12.7l-32.3,0l0,-12l0,-12l32.1,0c19.9,0 33.7,0.4 36.4,1.1z" fill="#34398c" id="svg_14"/>
   <path d="m862.2,522.1c-5.9,1 -11.4,3.5 -16.1,7.5c-6,5 -6.1,5.7 -6.1,35.6c0,25.1 0.2,27.6 1.9,30.4c2.4,3.9 7.2,7.6 13.7,10.6l4.9,2.3l131.4,0.3c97.2,0.2 131.7,-0.1 132.7,-0.9c0.8,-0.6 1.4,-2.9 1.4,-5c0,-7.5 11.4,-6.9 -130.1,-6.9c-90.6,0 -128.3,-0.3 -131.5,-1.1c-2.8,-0.7 -5.4,-2.3 -6.9,-4.1l-2.5,-3l0,-22.9c0,-13.9 0.4,-23.8 1,-25c0.6,-1 2.5,-2.7 4.3,-3.6c2.8,-1.6 7.3,-1.9 39.7,-2.3c20.1,-0.3 37.1,-0.9 37.8,-1.3c0.6,-0.5 1.2,-2.8 1.2,-5.2c0,-3.4 -0.5,-4.7 -1.9,-5.5c-2.4,-1.2 -67.2,-1.2 -74.9,0.1z" fill="#34398c" id="svg_15"/>
   <path d="m896,210.6c-31.2,1.7 -46.7,2.7 -60,4c-206.3,19.3 -399.7,96.4 -501.8,200.2c-7.3,7.5 -13.1,13.7 -12.8,13.9c0.3,0.3 27.2,-14.7 68.6,-38.2c71.2,-40.5 75,-42.5 98.5,-52.5c109.6,-46.8 223.8,-72.3 354,-79c24.9,-1.3 84.8,-1.3 105,0c55.7,3.6 117.8,14.3 165.5,28.6c13.8,4.2 40.1,15 60.9,25c17.4,8.4 21,10.6 36.5,22.3c30.3,23 44.5,38.7 54.7,60.6c19.9,43 12.2,89 -22.8,135.8c-10.4,14 -17.5,21.3 -41.7,43.1c-4.8,4.3 -8.5,8 -8.2,8.3c2.2,2.3 42,-25 68.1,-46.8c13.9,-11.7 32.9,-30.8 40.5,-40.9c25.1,-33.2 37.5,-71.6 34.2,-105.5c-3,-30.3 -14,-53.4 -35.7,-75c-15.8,-15.8 -34,-27.7 -68,-44.1c-66.7,-32.2 -147.1,-51.8 -241,-58.4c-15,-1.1 -82.3,-2.1 -94.5,-1.4z" fill="#f80000" id="svg_2"/>
   <path d="m791,285c-31.4,1.8 -74.6,6.1 -104.5,10.4c-12,1.7 -8.7,3 4.3,1.7c39.7,-4.1 122.4,-3.6 167.7,0.9c111.4,11.2 202.2,39.3 260.2,80.5c17.5,12.4 37.4,32.2 47.2,46.9c8.9,13.5 12,19.4 16.5,32.6c5,14.1 6.7,24.9 6.8,41c0,32.7 -11.9,64.4 -36.2,96.5c-4.2,5.5 -8,10.7 -8.5,11.4c-2.3,3.8 7.4,-4.7 21,-18.3c33.8,-33.9 51.9,-65.5 57,-99.6c6.3,-41 -7.5,-76.8 -42.2,-110c-52.2,-49.9 -145.6,-81.7 -271.3,-92.6c-21.7,-1.8 -94.2,-2.7 -118,-1.4z" fill="#34398c" id="svg_3" transform="matrix(1 0 0 1 0 0)"/>
  </g>
 </g>
</svg>